<svg width="207" height="170" viewBox="0 0 207 170" fill="none" xmlns="http://www.w3.org/2000/svg">
<path d="M169.172 68.0503C169.172 68.0503 187.263 57.3953 190.925 45.9643H178.384C178.384 45.9643 184.377 55.3983 169.172 68.0503Z" fill="url(#paint0_linear_101_17)"/>
<path d="M159.405 72.0463C159.405 72.0463 162.069 84.6983 157.74 95.7973L144.977 94.7983C144.977 94.7983 157.297 92.0233 159.405 72.0463Z" fill="url(#paint1_linear_101_17)"/>
<path d="M199.027 41.7463C199.027 41.7463 150.859 33.3113 108.908 83.9223C69.228 131.784 90.11 165.553 92.489 169.074C92.089 168.506 91.693 167.938 91.303 167.37C91.259 167.306 91.216 167.236 91.169 167.168C84.005 156.425 55.398 108.445 83.38 64.6093C114.904 15.2283 166.351 12.2843 167.061 12.2443C167.064 12.2443 167.068 12.2443 167.068 12.2443C188.773 12.6203 206.102 19.3443 206.354 21.1023C206.796 24.2123 199.027 41.7463 199.027 41.7463Z" fill="url(#paint2_linear_101_17)"/>
<path d="M167.063 12.2423C166.613 12.1183 134.131 3.06528 90.926 26.2083C34.008 56.7003 20.902 115.793 20.902 115.793C3.83801 93.2723 0.064 74.3893 0 74.0633C0 74.0603 0 74.0603 0 74.0603C8.643 61.2473 34.011 28.7693 79.604 10.0043C136.914 -13.5787 166.646 11.8823 167.063 12.2423Z" fill="url(#paint3_linear_101_17)"/>
<path d="M167.066 12.2453C167.066 12.2453 167.063 12.2453 167.059 12.2453C166.35 12.2853 114.902 15.2293 83.378 64.6103C55.396 108.446 84.003 156.426 91.167 167.169C91.214 167.236 91.258 167.307 91.301 167.371C91.963 168.356 92.42 168.994 92.608 169.25C92.655 169.317 92.685 169.357 92.695 169.374C92.698 169.377 92.702 169.381 92.702 169.381C59.431 155.395 37.84 136.765 23.952 119.684C22.89 118.377 21.872 117.08 20.901 115.793C20.901 115.793 34.006 56.7003 90.925 26.2083C134.13 3.0653 166.611 12.1183 167.062 12.2423C167.066 12.2453 167.066 12.2453 167.066 12.2453Z" fill="url(#paint4_linear_101_17)"/>
<path d="M4.55101 30.4263C4.55101 30.4263 27.444 28.6503 53.192 17.7743C78.941 6.89728 97.364 15.3323 97.364 15.3323C97.364 15.3323 74.501 19.3273 60.961 39.3053C60.961 39.3053 37.817 54.3993 4.55101 30.4263Z" fill="url(#paint5_linear_101_17)"/>
<path d="M143.929 54.0893C143.929 54.0893 164.622 27.7633 186.375 26.8753C208.128 25.9873 211.68 46.6303 186.375 49.2943C161.07 51.9573 166.076 43.5673 143.929 54.0893Z" fill="url(#paint6_linear_101_17)"/>
<path d="M161.514 90.6603C161.514 90.6603 145.754 99.6813 135.765 87.0283C125.776 74.3763 115.021 57.7283 93.984 68.0493C72.947 78.3713 84.49 107.671 104.023 105.673C123.556 103.675 129.328 100.568 140.204 106.783C151.081 112.999 159.072 101.839 161.514 90.6603Z" fill="url(#paint7_linear_101_17)"/>
<defs>
<linearGradient id="paint0_linear_101_17" x1="179.385" y1="66.6312" x2="180.376" y2="52.2643" gradientUnits="userSpaceOnUse">
<stop stop-color="#FFAB80"/>
<stop offset="0.9979" stop-color="#731A46"/>
</linearGradient>
<linearGradient id="paint1_linear_101_17" x1="154.316" y1="71.9074" x2="152.334" y2="91.889" gradientUnits="userSpaceOnUse">
<stop stop-color="#FFAB80"/>
<stop offset="0.9979" stop-color="#731A46"/>
</linearGradient>
<linearGradient id="paint2_linear_101_17" x1="90.6538" y1="-24.9304" x2="146.8" y2="91.3258" gradientUnits="userSpaceOnUse">
<stop stop-color="#FFAB80"/>
<stop offset="0.9979" stop-color="#731A46"/>
</linearGradient>
<linearGradient id="paint3_linear_101_17" x1="51.821" y1="-23.3466" x2="97.0688" y2="74.415" gradientUnits="userSpaceOnUse">
<stop stop-color="#FFAB80"/>
<stop offset="0.9979" stop-color="#731A46"/>
</linearGradient>
<linearGradient id="paint4_linear_101_17" x1="72.3696" y1="21.6853" x2="136.113" y2="146.529" gradientUnits="userSpaceOnUse">
<stop stop-color="#FFAB80"/>
<stop offset="0.9979" stop-color="#731A46"/>
</linearGradient>
<linearGradient id="paint5_linear_101_17" x1="37.0361" y1="-0.0724115" x2="61.4764" y2="40.2211" gradientUnits="userSpaceOnUse">
<stop stop-color="#FFAB80"/>
<stop offset="0.9979" stop-color="#731A46"/>
</linearGradient>
<linearGradient id="paint6_linear_101_17" x1="168.344" y1="33.4631" x2="189.482" y2="76.0685" gradientUnits="userSpaceOnUse">
<stop stop-color="#FFAB80"/>
<stop offset="0.9979" stop-color="#731A46"/>
</linearGradient>
<linearGradient id="paint7_linear_101_17" x1="107.066" y1="62.9712" x2="145.709" y2="133.65" gradientUnits="userSpaceOnUse">
<stop stop-color="#FFAB80"/>
<stop offset="0.9979" stop-color="#731A46"/>
</linearGradient>
</defs>
</svg>
